#define select_width 128
#define select_height 128
static unsigned char select_bits[] = {
   0x00, 0x00, 0x00, 0x00, 0x00, 0x00, 0x00, 0x00, 0x00, 0x00, 0x00, 0x00,
   0x00, 0x00, 0x00, 0x00, 0x00, 0x00, 0x00, 0x00, 0x00, 0x00, 0x00, 0x00,
   0x00, 0x00, 0x00, 0x00, 0x00, 0x00, 0x00, 0x00, 0x00, 0x00, 0x00, 0x00,
   0x00, 0x00, 0x00, 0x00, 0x00, 0x00, 0x00, 0x00, 0x00, 0x00, 0x00, 0x00,
   0x00, 0x00, 0x00, 0x00, 0x00, 0x00, 0x00, 0x00, 0x00, 0x00, 0x00, 0x00,
   0x00, 0x00, 0x00, 0x00, 0x00, 0x00, 0x00, 0x00, 0x00, 0x00, 0x00, 0x00,
   0x00, 0x00, 0x00, 0x00, 0x00, 0x00, 0x00, 0x00, 0x00, 0x00, 0x00, 0x00,
   0x00, 0x00, 0x00, 0x00, 0x00, 0x00, 0x00, 0x00, 0x00, 0x00, 0x00, 0x00,
   0x00, 0x00, 0x00, 0x00, 0x00, 0x00, 0x00, 0x00, 0x00, 0x00, 0x00, 0x00,
   0x00, 0x00, 0x00, 0x00, 0x00, 0x00, 0x00, 0x00, 0x00, 0x00, 0x00, 0x00,
   0x00, 0x00, 0x00, 0x00, 0x00, 0x00, 0x00, 0x00, 0x00, 0x00, 0x00, 0x00,
   0x00, 0x00, 0x00, 0x00, 0x00, 0x00, 0x00, 0x00, 0x00, 0x00, 0x00, 0x00,
   0x00, 0x00, 0x00, 0x00, 0x00, 0x00, 0x00, 0x00, 0x00, 0x00, 0x00, 0x00,
   0x00, 0x00, 0x00, 0x00, 0x00, 0x00, 0x00, 0x00, 0x00, 0x00, 0x00, 0x00,
   0x00, 0x00, 0x00, 0x00, 0x00, 0x00, 0x00, 0x00, 0x00, 0x00, 0x00, 0x00,
   0x00, 0x00, 0x00, 0x00, 0x00, 0x00, 0x00, 0x00, 0x00, 0x00, 0x00, 0x00,
   0x00, 0x00, 0x00, 0x00, 0x00, 0x00, 0x00, 0x00, 0x00, 0x00, 0x00, 0x00,
   0x00, 0x00, 0x00, 0x00, 0x00, 0x00, 0x00, 0x00, 0x00, 0x00, 0x00, 0x00,
   0x00, 0x00, 0x00, 0x00, 0x00, 0x00, 0x00, 0x00, 0x00, 0x00, 0x00, 0x00,
   0x00, 0x00, 0x00, 0x00, 0x00, 0x00, 0x00, 0x00, 0x00, 0x00, 0x00, 0x00,
   0x00, 0x00, 0x00, 0x00, 0x00, 0x00, 0x00, 0x00, 0x00, 0x00, 0x00, 0x00,
   0x00, 0x00, 0x00, 0x00, 0x00, 0x00, 0x00, 0x00, 0x00, 0x00, 0x00, 0x00,
   0x00, 0x00, 0x00, 0x00, 0x00, 0x00, 0x00, 0x00, 0x00, 0x00, 0x00, 0x00,
   0x00, 0x00, 0x00, 0x00, 0x00, 0x00, 0x00, 0x00, 0x00, 0x00, 0x00, 0x00,
   0x00, 0x00, 0x00, 0x00, 0x00, 0x00, 0x00, 0x00, 0x00, 0x00, 0x00, 0x00,
   0x00, 0x00, 0x00, 0x00, 0x00, 0x00, 0x00, 0x00, 0x00, 0x00, 0x00, 0x00,
   0x00, 0x00, 0x00, 0x00, 0x00, 0x00, 0x00, 0x00, 0x00, 0x00, 0x00, 0x00,
   0x00, 0x00, 0x00, 0x00, 0x00, 0x00, 0x00, 0x00, 0x00, 0x00, 0x00, 0x00,
   0x00, 0x00, 0x00, 0x00, 0x00, 0x00, 0x00, 0x00, 0x00, 0x00, 0x00, 0x00,
   0x00, 0x00, 0x00, 0x00, 0x00, 0x00, 0x00, 0x00, 0x00, 0x00, 0x00, 0x00,
   0x00, 0x00, 0x00, 0x00, 0x00, 0x00, 0x00, 0x00, 0x00, 0x00, 0x00, 0x0e,
   0x07, 0x00, 0x00, 0xc0, 0x70, 0x38, 0x00, 0x00, 0x00, 0x00, 0x00, 0x00,
   0x00, 0x00, 0x00, 0x0c, 0x07, 0x00, 0x00, 0xc0, 0x70, 0x38, 0x00, 0x00,
   0x00, 0x00, 0x00, 0x00, 0x00, 0x00, 0x00, 0x0c, 0x03, 0x00, 0x00, 0x00,
   0x70, 0x38, 0x00, 0x00, 0x00, 0x00, 0x00, 0x00, 0x00, 0x00, 0x00, 0x0c,
   0x03, 0x00, 0x00, 0x00, 0x70, 0x38, 0x00, 0x00, 0x00, 0x00, 0x00, 0x00,
   0x00, 0x00, 0x00, 0x1c, 0x03, 0x00, 0x00, 0x00, 0x70, 0x38, 0x00, 0x00,
   0x00, 0x00, 0x00, 0x00, 0x00, 0x00, 0x00, 0x9c, 0x83, 0x1f, 0x0e, 0xc7,
   0x70, 0x38, 0xf0, 0xc3, 0xff, 0x00, 0x00, 0x00, 0x00, 0x00, 0x00, 0x98,
   0xc3, 0x3f, 0x0e, 0xc7, 0x70, 0x38, 0xf8, 0xc7, 0xff, 0x00, 0x00, 0x00,
   0x00, 0x00, 0x00, 0x98, 0xc3, 0x39, 0x0e, 0xc7, 0x70, 0x38, 0x38, 0x07,
   0xe0, 0x00, 0x00, 0x00, 0x00, 0x00, 0x00, 0x98, 0xe1, 0x70, 0x0e, 0xc7,
   0x70, 0x38, 0x1c, 0x0e, 0x70, 0x00, 0x00, 0x00, 0x00, 0x00, 0x00, 0xb8,
   0xe1, 0x70, 0x0e, 0xc7, 0x70, 0x38, 0x1c, 0x0e, 0x38, 0x00, 0x00, 0x00,
   0x00, 0x00, 0x00, 0xb8, 0xe1, 0x70, 0x0e, 0xc7, 0x70, 0x38, 0x1c, 0x0e,
   0x1c, 0x00, 0x00, 0x00, 0x00, 0x00, 0x00, 0xf0, 0xe1, 0x7f, 0x0e, 0xc7,
   0x70, 0x38, 0xfc, 0x0f, 0x1c, 0x00, 0x00, 0x00, 0x00, 0x00, 0x00, 0xf0,
   0xe1, 0x7f, 0x0e, 0xc7, 0x70, 0x38, 0xfc, 0x0f, 0x0e, 0x00, 0x00, 0x00,
   0x00, 0x00, 0x00, 0xf0, 0xe0, 0x00, 0x0e, 0xc7, 0x70, 0x38, 0x1c, 0x00,
   0x07, 0x00, 0x00, 0x00, 0x00, 0x00, 0x00, 0xf0, 0xe0, 0x00, 0x0e, 0xc7,
   0x70, 0x38, 0x1c, 0x00, 0x07, 0x00, 0x00, 0x00, 0x00, 0x00, 0x00, 0xf0,
   0xe0, 0x30, 0x0e, 0xc7, 0x70, 0x38, 0x1c, 0x86, 0x03, 0x00, 0x00, 0x00,
   0x00, 0x00, 0x00, 0xe0, 0xc0, 0x3f, 0xbc, 0xc7, 0xf1, 0x78, 0xf8, 0xc7,
   0x01, 0x00, 0x00, 0x00, 0x00, 0x00, 0x00, 0xe0, 0x80, 0x3f, 0xf8, 0xc7,
   0xe1, 0xf1, 0xf0, 0xc7, 0xff, 0x00, 0x00, 0x00, 0x00, 0x00, 0x00, 0xe0,
   0x00, 0x0f, 0xf0, 0x87, 0xc1, 0xe1, 0xe0, 0xc1, 0xff, 0x00, 0x00, 0x00,
   0x00, 0x00, 0x00, 0x00, 0x00, 0x00, 0x00, 0x00, 0x00, 0x00, 0x00, 0x00,
   0x00, 0x00, 0x00, 0x00, 0x00, 0x00, 0x00, 0x00, 0x00, 0x00, 0x00, 0x00,
   0x00, 0x00, 0x00, 0x00, 0x00, 0x00, 0x00, 0x00, 0x00, 0x00, 0x00, 0x00,
   0x00, 0x00, 0x00, 0x00, 0x00, 0x00, 0x00, 0x00, 0x00, 0x00, 0x00, 0x00,
   0x00, 0x00, 0x00, 0x00, 0x00, 0x00, 0x00, 0x00, 0x00, 0x00, 0x00, 0x00,
   0x00, 0x00, 0x00, 0x00, 0x00, 0x00, 0x00, 0x00, 0x00, 0x00, 0x00, 0x00,
   0x00, 0x00, 0x00, 0x00, 0x00, 0x00, 0x00, 0x00, 0x00, 0x00, 0x00, 0x00,
   0x00, 0x00, 0x00, 0x00, 0x00, 0x00, 0x00, 0x00, 0x00, 0x00, 0x00, 0x00,
   0x00, 0x00, 0x00, 0x00, 0x00, 0x00, 0x00, 0x00, 0x00, 0x00, 0x00, 0x00,
   0x00, 0x00, 0x00, 0x00, 0x00, 0x00, 0x00, 0x00, 0x00, 0x00, 0x00, 0x00,
   0x00, 0x00, 0x00, 0x00, 0x00, 0x00, 0x00, 0x00, 0x00, 0x00, 0x00, 0x00,
   0x00, 0x00, 0x00, 0x00, 0x00, 0x00, 0x00, 0x00, 0x00, 0x00, 0x00, 0x00,
   0x00, 0x00, 0x0c, 0x0e, 0x00, 0x00, 0x00, 0x06, 0x03, 0x00, 0x00, 0x00,
   0x00, 0x00, 0x00, 0x00, 0x00, 0x00, 0x06, 0x0e, 0x00, 0x00, 0x00, 0x06,
   0x03, 0x00, 0x00, 0x00, 0x00, 0x00, 0x00, 0x00, 0x00, 0x00, 0x03, 0x0e,
   0x00, 0x00, 0x00, 0x06, 0x00, 0x00, 0x00, 0x00, 0x00, 0x00, 0x00, 0x00,
   0x00, 0x00, 0x00, 0x0e, 0x00, 0x00, 0x00, 0x06, 0x00, 0x00, 0x00, 0x00,
   0x00, 0x00, 0x00, 0x00, 0x00, 0x00, 0x00, 0x0e, 0x00, 0x00, 0x00, 0x06,
   0x00, 0x00, 0x00, 0x00, 0x00, 0x00, 0x00, 0x00, 0xf0, 0x81, 0x1f, 0x0e,
   0xfc, 0xc0, 0x0f, 0x3f, 0x03, 0x3f, 0xfc, 0xc3, 0x3f, 0xf0, 0xc3, 0x1f,
   0xf8, 0xc3, 0x3f, 0x0e, 0xfe, 0xe1, 0x1f, 0x3f, 0x83, 0x7f, 0xfc, 0xc7,
   0x7f, 0xf8, 0xc7, 0x1f, 0x1c, 0xc3, 0x39, 0x0e, 0xce, 0xe1, 0x1c, 0x06,
   0x83, 0x73, 0x3c, 0xc7, 0x73, 0x38, 0xc7, 0x1b, 0x1c, 0xe7, 0x70, 0x0e,
   0x87, 0x73, 0x38, 0x06, 0xc3, 0xe1, 0x1c, 0xce, 0xe1, 0x1c, 0xce, 0x01,
   0x1c, 0xe0, 0x70, 0x0e, 0x87, 0x73, 0x00, 0x06, 0xc3, 0xe1, 0x1c, 0xce,
   0xe1, 0x1c, 0xce, 0x01, 0x38, 0xe0, 0x70, 0x0e, 0x87, 0x73, 0x00, 0x06,
   0xc3, 0xe1, 0x1c, 0xce, 0xe1, 0x1c, 0xce, 0x01, 0xf8, 0xe1, 0x7f, 0x0e,
   0xff, 0x73, 0x00, 0x06, 0xc3, 0xe1, 0x1c, 0xce, 0xe1, 0xfc, 0xcf, 0x01,
   0xf0, 0xe3, 0x7f, 0x0e, 0xff, 0x73, 0x00, 0x06, 0xc3, 0xe1, 0x1c, 0xce,
   0xe1, 0xfc, 0xcf, 0x01, 0x00, 0xe3, 0x00, 0x0e, 0x07, 0x70, 0x00, 0x06,
   0xc3, 0xe1, 0x1c, 0xce, 0xe1, 0x1c, 0xc0, 0x01, 0x1c, 0xe7, 0x00, 0x0e,
   0x07, 0x70, 0x38, 0x06, 0xc3, 0xe1, 0x1c, 0xce, 0xe1, 0x1c, 0xc0, 0x01,
   0x1c, 0xe7, 0x30, 0x0e, 0x87, 0x71, 0x38, 0x06, 0xc3, 0xe1, 0x1c, 0xce,
   0xe1, 0x1c, 0xc6, 0x01, 0xb8, 0xc3, 0x3f, 0x1e, 0xfe, 0xe1, 0x1d, 0x0e,
   0x87, 0x77, 0x1c, 0xce, 0xe1, 0xf8, 0xc7, 0x01, 0xf8, 0x83, 0x3f, 0x3c,
   0xfc, 0xc1, 0x1f, 0x3c, 0x07, 0x7f, 0x1c, 0xce, 0xe1, 0xf0, 0xc7, 0x01,
   0xf0, 0x00, 0x0f, 0x38, 0x78, 0x80, 0x07, 0x38, 0x06, 0x1e, 0x1c, 0xce,
   0xe1, 0xe0, 0xc1, 0x01, 0x00, 0x00, 0x00, 0x00, 0x00, 0x00, 0x00, 0x00,
   0x00, 0x00, 0x00, 0x00, 0x00, 0x00, 0x00, 0x00, 0x00, 0x00, 0x00, 0x00,
   0x00, 0x00, 0x00, 0x00, 0x00, 0x00, 0x00, 0x00, 0x00, 0x00, 0x00, 0x00,
   0x00, 0x00, 0x00, 0x00, 0x00, 0x00, 0x00, 0x00, 0x00, 0x00, 0x00, 0x00,
   0x00, 0x00, 0x00, 0x00, 0x00, 0x00, 0x00, 0x00, 0x00, 0x00, 0x00, 0x00,
   0x00, 0x00, 0x00, 0x00, 0x00, 0x00, 0x00, 0x00, 0x00, 0x00, 0x00, 0x00,
   0x00, 0x00, 0x00, 0x00, 0x00, 0x00, 0x00, 0x00, 0x00, 0x00, 0x00, 0x00,
   0x00, 0x00, 0x00, 0x00, 0x00, 0x00, 0x00, 0x00, 0x00, 0x00, 0x00, 0x00,
   0x00, 0x00, 0x00, 0x00, 0x00, 0x00, 0x00, 0x00, 0x00, 0x00, 0x00, 0x00,
   0x00, 0x00, 0x00, 0x00, 0x00, 0x00, 0x00, 0x00, 0x00, 0x00, 0x00, 0x00,
   0x00, 0x00, 0x00, 0x00, 0x00, 0x00, 0x00, 0x00, 0x00, 0x00, 0x00, 0x00,
   0x00, 0x00, 0x00, 0x00, 0x00, 0x00, 0x00, 0x00, 0x00, 0x00, 0x00, 0x00,
   0x00, 0x00, 0x00, 0x00, 0x00, 0x00, 0x00, 0x00, 0x00, 0x00, 0x00, 0x00,
   0x00, 0x00, 0x00, 0x0f, 0x60, 0x00, 0x00, 0x00, 0x00, 0x00, 0x00, 0x00,
   0x00, 0x00, 0x00, 0x00, 0x00, 0x00, 0x80, 0x1f, 0x30, 0x00, 0x00, 0x00,
   0x00, 0x00, 0x00, 0x00, 0x00, 0x00, 0x00, 0x00, 0x00, 0x00, 0x80, 0x3b,
   0x18, 0x00, 0x00, 0x00, 0x00, 0x00, 0x00, 0x00, 0x00, 0x00, 0x00, 0x00,
   0x00, 0x00, 0x80, 0x01, 0x00, 0x00, 0x00, 0x00, 0x00, 0x00, 0x00, 0x00,
   0x00, 0x00, 0x00, 0x00, 0x00, 0x00, 0x80, 0x01, 0x00, 0x00, 0x00, 0x00,
   0x00, 0x00, 0x80, 0xc3, 0xf9, 0x07, 0x00, 0xe0, 0x07, 0x7e, 0x80, 0x01,
   0xfc, 0x00, 0x00, 0x00, 0x00, 0x00, 0x80, 0xc3, 0xf9, 0x0f, 0x00, 0xf0,
   0x0f, 0xfe, 0x80, 0x01, 0xfe, 0x01, 0x00, 0x00, 0x00, 0x00, 0x80, 0xc3,
   0x79, 0x0e, 0x00, 0x70, 0x0e, 0xc7, 0xf1, 0x1f, 0xce, 0x01, 0x00, 0x00,
   0x00, 0x00, 0x80, 0xc3, 0x39, 0x1c, 0x00, 0x38, 0x1c, 0xc3, 0xf1, 0x1f,
   0x87, 0x03, 0x00, 0x00, 0x00, 0x00, 0x80, 0xc3, 0x39, 0x1c, 0x00, 0x38,
   0x00, 0xc0, 0x81, 0x01, 0x87, 0x03, 0x00, 0x00, 0x00, 0x00, 0x80, 0xc3,
   0x39, 0x1c, 0x00, 0x38, 0x00, 0xc0, 0x81, 0x01, 0x87, 0x03, 0x00, 0x00,
   0x00, 0x00, 0x80, 0xc3, 0x39, 0x1c, 0x00, 0x38, 0x00, 0xfe, 0x81, 0x01,
   0xff, 0x03, 0x00, 0x00, 0x00, 0x00, 0x80, 0xc3, 0x39, 0x1c, 0x00, 0x38,
   0x00, 0xff, 0x81, 0x01, 0xff, 0x03, 0x00, 0x00, 0x00, 0x00, 0x80, 0xc3,
   0x39, 0x1c, 0x00, 0x38, 0x80, 0xc3, 0x81, 0x01, 0x07, 0x00, 0x00, 0x00,
   0x00, 0x00, 0x80, 0xc3, 0x39, 0x1c, 0x00, 0x38, 0x9c, 0xc3, 0x81, 0x01,
   0x07, 0x00, 0x00, 0x00, 0x00, 0x00, 0x80, 0xc3, 0x39, 0x1c, 0x00, 0x38,
   0x9c, 0xc3, 0x81, 0x01, 0x87, 0x01, 0x00, 0x00, 0x00, 0x00, 0x00, 0xef,
   0x39, 0x1c, 0x00, 0xf0, 0x0e, 0xe7, 0x83, 0x01, 0xfe, 0x01, 0x00, 0x00,
   0x00, 0x00, 0x00, 0xfe, 0x39, 0x1c, 0x00, 0xe0, 0x0f, 0xff, 0x83, 0x01,
   0xfc, 0x01, 0x00, 0x00, 0x00, 0x00, 0x00, 0xfc, 0x39, 0x1c, 0x00, 0xc0,
   0x03, 0x7e, 0x83, 0x01, 0x78, 0x00, 0x00, 0x00, 0x00, 0x00, 0x00, 0x00,
   0x00, 0x00, 0x00, 0x00, 0x00, 0x00, 0x00, 0x00, 0x00, 0x00, 0x00, 0x00,
   0x00, 0x00, 0x00, 0x00, 0x00, 0x00, 0x00, 0x00, 0x00, 0x00, 0x00, 0x00,
   0x00, 0x00, 0x00, 0x00, 0x00, 0x00, 0x00, 0x00, 0x00, 0x00, 0x00, 0x00,
   0x00, 0x00, 0x00, 0x00, 0x00, 0x00, 0x00, 0x00, 0x00, 0x00, 0x00, 0x00,
   0x00, 0x00, 0x00, 0x00, 0x00, 0x00, 0x00, 0x00, 0x00, 0x00, 0x00, 0x00,
   0x00, 0x00, 0x00, 0x00, 0x00, 0x00, 0x00, 0x00, 0x00, 0x00, 0x00, 0x00,
   0x00, 0x00, 0x00, 0x00, 0x00, 0x00, 0x00, 0x00, 0x00, 0x00, 0x00, 0x00,
   0x00, 0x00, 0x00, 0x00, 0x00, 0x00, 0x00, 0x00, 0x00, 0x00, 0x00, 0x00,
   0x00, 0x00, 0x00, 0x00, 0x00, 0x00, 0x00, 0x00, 0x00, 0x00, 0x00, 0x00,
   0x00, 0x00, 0x00, 0x00, 0x00, 0x00, 0x00, 0x00, 0x00, 0x00, 0x00, 0x00,
   0x10, 0x00, 0x00, 0x00, 0x00, 0x00, 0x00, 0x00, 0x00, 0x00, 0x00, 0x00,
   0x00, 0x00, 0x00, 0x00, 0x70, 0x00, 0x00, 0x00, 0x00, 0x00, 0x00, 0x00,
   0x00, 0x00, 0x00, 0x00, 0x00, 0x00, 0x00, 0x00, 0xf0, 0x01, 0x00, 0x00,
   0x00, 0x00, 0x00, 0x00, 0x00, 0x00, 0x00, 0x00, 0x00, 0x00, 0x00, 0x00,
   0xf0, 0x03, 0x00, 0x00, 0x00, 0x00, 0x00, 0x00, 0x00, 0x00, 0x00, 0x00,
   0x00, 0x00, 0x00, 0x00, 0xf0, 0x0f, 0x00, 0x00, 0x00, 0x00, 0x00, 0x00,
   0x00, 0x00, 0x00, 0x00, 0x00, 0x00, 0x00, 0x00, 0xf0, 0x1f, 0x00, 0x00,
   0x00, 0x00, 0x00, 0x00, 0x00, 0x00, 0x00, 0x00, 0x00, 0x00, 0x00, 0x00,
   0xf0, 0x7f, 0x00, 0x00, 0x00, 0x00, 0x00, 0x00, 0x00, 0x00, 0x00, 0x00,
   0x00, 0x00, 0x00, 0x00, 0xf0, 0xff, 0x01, 0x00, 0x00, 0x00, 0x00, 0x00,
   0x00, 0x00, 0x00, 0x00, 0x00, 0x00, 0x00, 0x00, 0xf0, 0xff, 0x03, 0x00,
   0x00, 0x00, 0x00, 0x00, 0x00, 0x00, 0x00, 0x00, 0x00, 0x00, 0x00, 0x00,
   0xf0, 0xff, 0x01, 0x00, 0x00, 0x00, 0x00, 0x00, 0x00, 0x00, 0x00, 0x00,
   0x00, 0x00, 0x00, 0x00, 0xf0, 0x7f, 0x00, 0x00, 0x00, 0x00, 0x00, 0x00,
   0x00, 0x00, 0x00, 0x00, 0x00, 0x00, 0x00, 0x00, 0xf0, 0x1f, 0x00, 0x00,
   0x00, 0x00, 0x00, 0x00, 0x00, 0x00, 0x00, 0x00, 0x00, 0x00, 0x00, 0x00,
   0xf0, 0x0f, 0x00, 0x00, 0x00, 0x00, 0x00, 0x00, 0x00, 0x00, 0x00, 0x00,
   0x00, 0x00, 0x00, 0x00, 0xf0, 0x03, 0x00, 0x00, 0x00, 0x00, 0x00, 0x00,
   0x00, 0x00, 0x00, 0x00, 0x00, 0x00, 0x00, 0x00, 0xf0, 0x01, 0x00, 0x00,
   0x00, 0x00, 0x00, 0x00, 0x00, 0x00, 0x00, 0x00, 0x00, 0x00, 0x00, 0x00,
   0x70, 0x00, 0x00, 0x00, 0x00, 0x00, 0x00, 0x00, 0x00, 0x00, 0x00, 0x00,
   0x00, 0x00, 0x00, 0x00, 0x10, 0x00, 0x00, 0x00, 0x00, 0x00, 0x00, 0x00,
   0x00, 0x00, 0x00, 0x00, 0x00, 0x00, 0x00, 0x00, 0x00, 0x00, 0x00, 0x00,
   0x00, 0x00, 0x00, 0x00, 0x00, 0x00, 0x00, 0x00, 0x00, 0x00, 0x00, 0x00,
   0x00, 0x00, 0x00, 0x00, 0x00, 0x00, 0x00, 0x00, 0x00, 0x00, 0x00, 0x00,
   0x00, 0x00, 0x00, 0x00, 0x00, 0x00, 0x00, 0x00, 0x00, 0x00, 0x00, 0x00,
   0x00, 0x00, 0x00, 0x00, 0x00, 0x00, 0x00, 0x00, 0x00, 0x00, 0x00, 0x00,
   0x00, 0x00, 0x00, 0x00, 0x00, 0x00, 0x00, 0x00, 0x00, 0x00, 0x00, 0x00,
   0x00, 0x00, 0x00, 0x00, 0x00, 0x00, 0x00, 0x00, 0x00, 0x00, 0x00, 0x00,
   0x00, 0x00, 0x00, 0x00, 0x00, 0x00, 0x00, 0x00 };
